<svg width="18" height="18" viewBox="0 0 18 18" fill="none" xmlns="http://www.w3.org/2000/svg">
<path d="M9.58522 16.2188C9.29947 16.575 8.69947 16.575 8.41372 16.2188L2.41372 8.71877C2.3257 8.60837 2.2706 8.47538 2.25475 8.33507C2.23889 8.19476 2.26293 8.05283 2.32409 7.92556C2.38526 7.7983 2.48108 7.69086 2.60054 7.61559C2.72 7.54032 2.85827 7.50027 2.99947 7.50002H5.99947V2.25002C5.99947 2.05111 6.07849 1.86035 6.21914 1.71969C6.3598 1.57904 6.55056 1.50002 6.74947 1.50002H11.2495C11.4484 1.50002 11.6392 1.57904 11.7798 1.71969C11.9205 1.86035 11.9995 2.05111 11.9995 2.25002V7.50002H14.9995C15.1407 7.50027 15.2789 7.54032 15.3984 7.61559C15.5179 7.69086 15.6137 7.7983 15.6749 7.92556C15.736 8.05283 15.7601 8.19476 15.7442 8.33507C15.7283 8.47538 15.6732 8.60837 15.5852 8.71877L9.58522 16.2188ZM11.2495 9.00002H10.4995V3.00002H7.49947V9.00002H4.56022L8.99947 14.5493L13.4387 9.00002H11.2495Z" fill="#FF6D6D"/>
<path d="M10.9163 2.88693H6.87727L6.76811 8.67251L4.03906 8.89083L9.16967 14.8947L13.9728 8.67251H10.9163V2.88693Z" fill="#FF6D6D"/>
</svg>
