<svg width="18" height="18" viewBox="0 0 18 18" fill="none" xmlns="http://www.w3.org/2000/svg">
<path d="M9.58522 1.78123C9.29947 1.42498 8.69947 1.42498 8.41372 1.78123L2.41372 9.28123C2.3257 9.39163 2.2706 9.52462 2.25475 9.66493C2.23889 9.80524 2.26293 9.94717 2.32409 10.0744C2.38526 10.2017 2.48108 10.3091 2.60054 10.3844C2.72 10.4597 2.85827 10.4997 2.99947 10.5H5.99947V15.75C5.99947 15.9489 6.07849 16.1397 6.21914 16.2803C6.3598 16.421 6.55056 16.5 6.74947 16.5H11.2495C11.4484 16.5 11.6392 16.421 11.7798 16.2803C11.9205 16.1397 11.9995 15.9489 11.9995 15.75V10.5H14.9995C15.1407 10.4997 15.2789 10.4597 15.3984 10.3844C15.5179 10.3091 15.6137 10.2017 15.6749 10.0744C15.736 9.94717 15.7601 9.80524 15.7442 9.66493C15.7283 9.52462 15.6732 9.39163 15.5852 9.28123L9.58522 1.78123ZM11.2495 8.99998H10.4995V15H7.49947V8.99998H4.56022L8.99947 3.45073L13.4387 8.99998H11.2495Z" fill="#6DFF8D"/>
<path d="M10.9163 15.1131H6.87727L6.76811 9.32749L4.03906 9.10917L9.16967 3.10527L13.9728 9.32749H10.9163V15.1131Z" fill="#6DFF8D"/>
</svg>
