<svg width="15" height="13" viewBox="0 0 15 13" fill="none" xmlns="http://www.w3.org/2000/svg">
<path d="M7.32526 7.791C8.04802 7.791 8.63392 7.20652 8.63392 6.48553C8.63392 5.76453 8.04802 5.18005 7.32526 5.18005C6.60251 5.18005 6.0166 5.76453 6.0166 6.48553C6.0166 7.20652 6.60251 7.791 7.32526 7.791Z" fill="#00D8FF"/>
<path d="M7.32539 9.47612C5.48753 9.47612 3.88168 9.26028 2.67989 8.84939C1.90043 8.58414 1.23828 8.23046 0.766429 7.82738C0.265904 7.40089 0 6.93539 0 6.4855C0 5.62212 0.948912 4.77694 2.54173 4.22562C3.84518 3.77313 5.54488 3.52087 7.32278 3.52087C9.06941 3.52087 10.7456 3.76533 12.0413 4.21262C12.7999 4.47267 13.4386 4.81074 13.8922 5.18522C14.3849 5.59611 14.6456 6.046 14.6456 6.4855C14.6456 7.38268 13.5846 8.29028 11.8744 8.85459C10.6648 9.25508 9.04855 9.47612 7.32539 9.47612ZM7.32539 4.14501C5.63873 4.14501 3.97031 4.38946 2.75028 4.81335C1.2852 5.32305 0.628263 6.02 0.628263 6.4855C0.628263 6.9692 1.33473 7.73116 2.88323 8.25907C4.01984 8.64655 5.55791 8.85199 7.32539 8.85199C8.98338 8.85199 10.5293 8.64395 11.6789 8.26167C13.2874 7.72856 14.0225 6.9666 14.0225 6.4855C14.0225 6.23844 13.8348 5.94718 13.4933 5.66372C13.0997 5.33605 12.5262 5.03699 11.8405 4.80034C10.6075 4.37905 9.00424 4.14501 7.32539 4.14501Z" fill="#00D8FF"/>
<path d="M4.3565 12.992C4.0906 12.992 3.85598 12.9348 3.65785 12.8204C2.90967 12.3887 2.64898 11.1456 2.96441 9.49427C3.2225 8.13939 3.85337 6.54785 4.74232 5.01093C5.61563 3.50261 6.66361 2.17633 7.69855 1.27915C8.30335 0.753835 8.91597 0.368954 9.46864 0.166111C10.0708 -0.0549351 10.5922 -0.0549351 10.9728 0.163511C11.7523 0.610805 12.0104 1.98389 11.6454 3.74186C11.3873 4.99013 10.7721 6.49584 9.91181 7.98596C8.99418 9.57229 8.00356 10.8518 7.04682 11.6865C6.42638 12.2274 5.78769 12.6227 5.20374 12.8282C4.89874 12.9374 4.61198 12.992 4.3565 12.992ZM5.01083 5.16696L5.28195 5.323C4.43992 6.7793 3.81687 8.34223 3.57704 9.6113C3.28767 11.1326 3.56661 12.048 3.96807 12.2795C4.06713 12.3367 4.19748 12.3679 4.3565 12.3679C4.87527 12.3679 5.69123 12.0402 6.63493 11.2184C7.53953 10.4305 8.48583 9.20301 9.36957 7.67649C10.1986 6.24359 10.7877 4.80289 11.0328 3.61964C11.3743 1.96309 11.0797 0.948876 10.66 0.707025C10.4462 0.5848 10.0995 0.600403 9.6824 0.753835C9.20012 0.930672 8.65528 1.27655 8.10783 1.75245C7.12503 2.60542 6.12137 3.87449 5.28195 5.3256L5.01083 5.16696Z" fill="#00D8FF"/>
<path d="M10.2947 12.9999C9.58562 12.9999 8.68624 12.5734 7.74776 11.7673C6.69978 10.8675 5.63356 9.5282 4.742 7.99127C3.86608 6.48296 3.24043 4.91483 2.97713 3.57034C2.82332 2.78498 2.79465 2.06463 2.89371 1.48471C3.0032 0.852774 3.26128 0.402879 3.6445 0.181833C4.42135 -0.268062 5.74305 0.194835 7.08821 1.38849C8.04234 2.23366 9.04339 3.51833 9.90627 5.00585C10.8265 6.59218 11.4443 8.08749 11.6894 9.33056C11.8484 10.1367 11.8745 10.8857 11.7624 11.4942C11.6425 12.1417 11.3713 12.602 10.9803 12.8283C10.7848 12.9427 10.5528 12.9999 10.2947 12.9999ZM5.28424 7.67921C6.12887 9.13552 7.17684 10.454 8.15704 11.294C9.33275 12.303 10.266 12.5214 10.6701 12.2874C11.0898 12.0455 11.3974 11.0547 11.0794 9.45278C10.8448 8.27734 10.253 6.84703 9.36664 5.32051C8.53504 3.88761 7.57831 2.65755 6.67371 1.85658C5.40676 0.733149 4.37964 0.480896 3.95993 0.722746C3.74616 0.844972 3.58714 1.15444 3.51154 1.59133C3.42552 2.09584 3.45158 2.74077 3.59236 3.45072C3.84262 4.72759 4.44221 6.2281 5.28424 7.67921Z" fill="#00D8FF"/>
</svg>
