<svg width="13" height="13" viewBox="0 0 13 13" fill="none" xmlns="http://www.w3.org/2000/svg">
<g clip-path="url(#clip0_136936_1077)">
<mask id="mask0_136936_1077" style="mask-type:luminance" maskUnits="userSpaceOnUse" x="0" y="0" width="13" height="13">
<path d="M0 0.0159912H12.984V13H0V0.0159912Z" fill="white"/>
</mask>
<g mask="url(#mask0_136936_1077)">
<path d="M12.7396 5.92994L7.07049 0.261232C6.99283 0.183523 6.90062 0.121878 6.79913 0.0798195C6.69763 0.037761 6.58885 0.0161133 6.47899 0.0161133C6.36912 0.0161133 6.26034 0.037761 6.15885 0.0798195C6.05736 0.121878 5.96515 0.183523 5.88749 0.261232L4.7107 1.43858L6.20373 2.9316C6.37926 2.87199 6.56797 2.86268 6.74851 2.90473C6.92906 2.94679 7.09423 3.03852 7.22536 3.16956C7.35721 3.30155 7.44925 3.46798 7.49096 3.64982C7.53266 3.83166 7.52235 4.02157 7.46119 4.19783L8.90066 5.63687C9.07696 5.57564 9.26695 5.56533 9.44884 5.60711C9.63074 5.6489 9.79717 5.7411 9.92907 5.87313C10.0215 5.96551 10.0948 6.07518 10.1448 6.19589C10.1948 6.31659 10.2205 6.44597 10.2205 6.57662C10.2205 6.70727 10.1948 6.83664 10.1448 6.95735C10.0948 7.07805 10.0215 7.18773 9.92907 7.2801C9.74228 7.4667 9.48905 7.57151 9.22502 7.57151C8.961 7.57151 8.70777 7.4667 8.52098 7.2801C8.38221 7.14111 8.28767 6.96418 8.24925 6.77157C8.21083 6.57897 8.23025 6.3793 8.30506 6.19771L6.96267 4.85574V8.38793C7.10436 8.45792 7.22733 8.56066 7.32141 8.68764C7.41548 8.81462 7.47795 8.96219 7.50364 9.11812C7.52933 9.27405 7.5175 9.43386 7.46913 9.5843C7.42076 9.73475 7.33724 9.87151 7.2255 9.98326C7.13312 10.0756 7.02345 10.1489 6.90274 10.1989C6.78204 10.2489 6.65267 10.2747 6.52201 10.2747C6.39136 10.2747 6.26199 10.2489 6.14128 10.1989C6.02058 10.1489 5.91091 10.0756 5.81853 9.98326C5.72611 9.89088 5.6528 9.78119 5.60279 9.66048C5.55277 9.53976 5.52703 9.41037 5.52703 9.2797C5.52703 9.14903 5.55277 9.01964 5.60279 8.89892C5.6528 8.77821 5.72611 8.66852 5.81853 8.57615C5.91162 8.48286 6.02227 8.40895 6.14409 8.35868V4.79399C6.02277 4.74402 5.91252 4.67057 5.81967 4.57786C5.72682 4.48515 5.6532 4.37501 5.60304 4.25377C5.55288 4.13252 5.52718 4.00256 5.52739 3.87135C5.52761 3.74014 5.55375 3.61027 5.60431 3.48919L4.1322 2.0168L0.244639 5.90337C0.0879826 6.06034 0 6.27304 0 6.4948C0 6.71657 0.0879826 6.92927 0.244639 7.08623L5.91405 12.7556C6.07101 12.9123 6.28368 13.0002 6.50541 13.0002C6.72714 13.0002 6.93981 12.9123 7.09677 12.7556L12.7396 7.1128C12.8963 6.95583 12.9843 6.74313 12.9843 6.52137C12.9843 6.29961 12.8963 6.0869 12.7396 5.92994Z" fill="#F03C2E"/>
</g>
</g>
<defs>
<clipPath id="clip0_136936_1077">
<rect width="13" height="13" fill="white"/>
</clipPath>
</defs>
</svg>
