<svg width="18" height="18" viewBox="0 0 18 18" fill="none" xmlns="http://www.w3.org/2000/svg">
<path d="M9.00033 5.45835C8.48256 5.45835 8.06283 5.87809 8.06283 6.39585C8.06283 6.74103 7.783 7.02085 7.43783 7.02085C7.09265 7.02085 6.81283 6.74103 6.81283 6.39585C6.81283 5.18773 7.7922 4.20835 9.00033 4.20835C10.2084 4.20835 11.1878 5.18773 11.1878 6.39585C11.1878 7.19864 10.755 7.89967 10.113 8.27949C9.94909 8.3765 9.81374 8.48241 9.72556 8.58633C9.63995 8.68721 9.62533 8.75302 9.62533 8.79169V9.83335C9.62533 10.1785 9.3455 10.4584 9.00033 10.4584C8.65515 10.4584 8.37533 10.1785 8.37533 9.83335V8.79169C8.37533 8.37012 8.55989 8.02805 8.77249 7.77753C8.98251 7.53004 9.2444 7.34102 9.47655 7.20368C9.75402 7.03951 9.93783 6.73882 9.93783 6.39585C9.93783 5.87809 9.51809 5.45835 9.00033 5.45835Z" fill="url(#paint0_linear_136936_993)"/>
<path d="M9.00033 13.1667C9.46056 13.1667 9.83366 12.7936 9.83366 12.3334C9.83366 11.8731 9.46056 11.5 9.00033 11.5C8.54009 11.5 8.16699 11.8731 8.16699 12.3334C8.16699 12.7936 8.54009 13.1667 9.00033 13.1667Z" fill="url(#paint1_linear_136936_993)"/>
<path fill-rule="evenodd" clip-rule="evenodd" d="M8.95251 0.0416872H9.04814C10.9718 0.0416768 12.4793 0.0416687 13.6556 0.19981C14.8595 0.361676 15.8095 0.69946 16.5552 1.44513C17.3009 2.19081 17.6387 3.14083 17.8005 4.34478C17.9587 5.52102 17.9587 7.02855 17.9587 8.95221V9.04783C17.9587 10.9715 17.9587 12.479 17.8005 13.6553C17.6387 14.8592 17.3009 15.8092 16.5552 16.5549C15.8095 17.3006 14.8595 17.6384 13.6556 17.8002C12.4793 17.9584 10.9718 17.9584 9.04814 17.9584H8.95252C7.02885 17.9584 5.52132 17.9584 4.34508 17.8002C3.14113 17.6384 2.19111 17.3006 1.44544 16.5549C0.699765 15.8092 0.361981 14.8592 0.200115 13.6553C0.0419739 12.479 0.041982 10.9715 0.0419924 9.04785V8.9522C0.041982 7.02855 0.0419739 5.52101 0.200115 4.34478C0.361981 3.14083 0.699765 2.19081 1.44544 1.44513C2.19111 0.69946 3.14113 0.361676 4.34508 0.19981C5.52132 0.0416687 7.02886 0.0416768 8.95251 0.0416872ZM4.51164 1.43866C3.4463 1.58189 2.80404 1.8543 2.32932 2.32902C1.85461 2.80373 1.5822 3.446 1.43897 4.51133C1.29332 5.59465 1.29199 7.01817 1.29199 9.00002C1.29199 10.9819 1.29332 12.4054 1.43897 13.4887C1.5822 14.554 1.85461 15.1963 2.32932 15.671C2.80404 16.1457 3.4463 16.4181 4.51164 16.5614C5.59496 16.707 7.01847 16.7084 9.00033 16.7084C10.9822 16.7084 12.4057 16.707 13.489 16.5614C14.5543 16.4181 15.1966 16.1457 15.6713 15.671C16.146 15.1963 16.4185 14.554 16.5617 13.4887C16.7073 12.4054 16.7087 10.9819 16.7087 9.00002C16.7087 7.01817 16.7073 5.59465 16.5617 4.51133C16.4185 3.446 16.146 2.80373 15.6713 2.32902C15.1966 1.8543 14.5543 1.58189 13.489 1.43866C12.4057 1.29302 10.9822 1.29169 9.00033 1.29169C7.01847 1.29169 5.59496 1.29302 4.51164 1.43866Z" fill="url(#paint2_linear_136936_993)"/>
<defs>
<linearGradient id="paint0_linear_136936_993" x1="-2.5989" y1="0.0416911" x2="18.8112" y2="1.24623" gradientUnits="userSpaceOnUse">
<stop stop-color="#FF7000"/>
<stop offset="0.9999" stop-color="#E2985E"/>
<stop offset="1" stop-color="#E2995F"/>
</linearGradient>
<linearGradient id="paint1_linear_136936_993" x1="-2.5989" y1="0.0416911" x2="18.8112" y2="1.24623" gradientUnits="userSpaceOnUse">
<stop stop-color="#FF7000"/>
<stop offset="0.9999" stop-color="#E2985E"/>
<stop offset="1" stop-color="#E2995F"/>
</linearGradient>
<linearGradient id="paint2_linear_136936_993" x1="-2.5989" y1="0.0416911" x2="18.8112" y2="1.24623" gradientUnits="userSpaceOnUse">
<stop stop-color="#FF7000"/>
<stop offset="0.9999" stop-color="#E2985E"/>
<stop offset="1" stop-color="#E2995F"/>
</linearGradient>
</defs>
</svg>
