<svg width="13" height="13" viewBox="0 0 13 13" fill="none" xmlns="http://www.w3.org/2000/svg">
<g clip-path="url(#clip0_136936_1027)">
<path d="M3.48766 12.6281L0.40625 0.373535L12.5938 3.79619" fill="white"/>
<path d="M4.99219 7.36157L5.76203 10.4267" stroke="black" stroke-width="0.273684" stroke-miterlimit="10"/>
<path d="M8.03297 8.22282L4.99219 7.36157" stroke="black" stroke-width="0.273684" stroke-miterlimit="10"/>
<path d="M5.76172 10.4268L8.03266 8.2229" stroke="black" stroke-width="0.273684" stroke-miterlimit="10"/>
<path d="M5.76246 10.4264L2.72168 9.56519" stroke="black" stroke-width="0.273684" stroke-miterlimit="10"/>
<path d="M2.72168 9.56519L3.49152 12.6324L5.76246 10.4264" stroke="black" stroke-width="0.273684" stroke-miterlimit="10"/>
<path d="M2.72168 9.56548L4.99262 7.36157" stroke="black" stroke-width="0.273684" stroke-miterlimit="10"/>
<path d="M4.99219 7.36121L7.26516 5.15527" stroke="black" stroke-width="0.273684" stroke-miterlimit="10"/>
<path d="M7.26562 5.15557L9.53656 2.95166" stroke="black" stroke-width="0.273684" stroke-miterlimit="10"/>
<path d="M6.49609 2.09033L7.26594 5.15549" stroke="black" stroke-width="0.273684" stroke-miterlimit="10"/>
<path d="M7.26547 5.15585L4.22266 4.29663" stroke="black" stroke-width="0.273684" stroke-miterlimit="10"/>
<path d="M4.22266 4.29663L4.9925 7.36179" stroke="black" stroke-width="0.273684" stroke-miterlimit="10"/>
<path d="M4.99195 7.36149L1.95117 6.50024" stroke="black" stroke-width="0.273684" stroke-miterlimit="10"/>
<path d="M1.95117 6.50024L2.72102 9.5654" stroke="black" stroke-width="0.273684" stroke-miterlimit="10"/>
<path d="M1.18164 3.43542L1.95148 6.50058" stroke="black" stroke-width="0.273684" stroke-miterlimit="10"/>
<path d="M4.22242 4.29667L1.18164 3.43542" stroke="black" stroke-width="0.273684" stroke-miterlimit="10"/>
<path d="M1.95117 6.50054L4.22211 4.29663" stroke="black" stroke-width="0.273684" stroke-miterlimit="10"/>
<path d="M4.22266 4.29424L6.49563 2.09033" stroke="black" stroke-width="0.273684" stroke-miterlimit="10"/>
<path d="M6.49594 2.09038L3.45312 1.22913" stroke="black" stroke-width="0.273684" stroke-miterlimit="10"/>
<path d="M3.45312 1.22913L4.22297 4.29428" stroke="black" stroke-width="0.273684" stroke-miterlimit="10"/>
<path d="M1.18195 3.43498L0.412109 0.367798L3.45289 1.22905" stroke="black" stroke-width="0.273684" stroke-miterlimit="10"/>
<path d="M1.18164 3.43506L3.45258 1.22913" stroke="black" stroke-width="0.273684" stroke-miterlimit="10"/>
<path d="M10.307 6.01682L12.5779 3.81291L9.53711 2.95166" stroke="black" stroke-width="0.273684" stroke-miterlimit="10"/>
<path d="M9.53711 2.95166L10.307 6.01682" stroke="black" stroke-width="0.273684" stroke-miterlimit="10"/>
<path d="M10.3064 6.01652L7.26562 5.15527" stroke="black" stroke-width="0.273684" stroke-miterlimit="10"/>
<path d="M7.26562 5.15527L8.03344 8.22246" stroke="black" stroke-width="0.273684" stroke-miterlimit="10"/>
<path d="M8.0332 8.22254L10.3062 6.0166" stroke="black" stroke-width="0.273684" stroke-miterlimit="10"/>
<path d="M9.53688 2.95158L6.49609 2.09033" stroke="black" stroke-width="0.273684" stroke-miterlimit="10"/>
</g>
<defs>
<clipPath id="clip0_136936_1027">
<rect width="13" height="13" fill="white"/>
</clipPath>
</defs>
</svg>
