<svg width="18" height="18" viewBox="0 0 18 18" fill="none" xmlns="http://www.w3.org/2000/svg">
<path d="M9.5862 16.2188C9.30045 16.575 8.70045 16.575 8.4147 16.2188L2.4147 8.71877C2.32668 8.60837 2.27158 8.47538 2.25572 8.33507C2.23987 8.19476 2.26391 8.05283 2.32507 7.92556C2.38624 7.7983 2.48205 7.69086 2.60152 7.61559C2.72098 7.54032 2.85925 7.50027 3.00045 7.50002H6.00045V2.25002C6.00045 2.05111 6.07947 1.86035 6.22012 1.71969C6.36077 1.57904 6.55154 1.50002 6.75045 1.50002H11.2505C11.4494 1.50002 11.6401 1.57904 11.7808 1.71969C11.9214 1.86035 12.0005 2.05111 12.0005 2.25002V7.50002H15.0005C15.1417 7.50027 15.2799 7.54032 15.3994 7.61559C15.5188 7.69086 15.6147 7.7983 15.6758 7.92556C15.737 8.05283 15.761 8.19476 15.7452 8.33507C15.7293 8.47538 15.6742 8.60837 15.5862 8.71877L9.5862 16.2188ZM11.2505 9.00002H10.5005V3.00002H7.50045V9.00002H4.5612L9.00045 14.5493L13.4397 9.00002H11.2505Z" fill="#7B8EC8"/>
</svg>
