<svg width="18" height="18" viewBox="0 0 18 18" fill="none" xmlns="http://www.w3.org/2000/svg">
<path d="M9.5862 1.78123C9.30045 1.42498 8.70045 1.42498 8.4147 1.78123L2.4147 9.28123C2.32668 9.39163 2.27158 9.52462 2.25572 9.66493C2.23987 9.80524 2.26391 9.94717 2.32507 10.0744C2.38624 10.2017 2.48205 10.3091 2.60152 10.3844C2.72098 10.4597 2.85925 10.4997 3.00045 10.5H6.00045V15.75C6.00045 15.9489 6.07947 16.1397 6.22012 16.2803C6.36077 16.421 6.55154 16.5 6.75045 16.5H11.2505C11.4494 16.5 11.6401 16.421 11.7808 16.2803C11.9214 16.1397 12.0005 15.9489 12.0005 15.75V10.5H15.0005C15.1417 10.4997 15.2799 10.4597 15.3994 10.3844C15.5188 10.3091 15.6147 10.2017 15.6758 10.0744C15.737 9.94717 15.761 9.80524 15.7452 9.66493C15.7293 9.52462 15.6742 9.39163 15.5862 9.28123L9.5862 1.78123ZM11.2505 8.99998H10.5005V15H7.50045V8.99998H4.5612L9.00045 3.45073L13.4397 8.99998H11.2505Z" fill="#7B8EC8"/>
</svg>
