<svg width="120" height="20" viewBox="0 0 120 20" fill="none" xmlns="http://www.w3.org/2000/svg">
<path d="M8.18176 1C7.31844 2.239 8.17587 5.51475 8.36359 7.00011L9.09087 6.81828C8.8886 5.21777 9.07798 2.31186 8.18176 1Z" fill="#FF7000"/>
<path d="M10.5457 1.18225L9.27295 6.81871L10.0002 7.00053L11.0912 1.36407L10.5457 1.18225Z" fill="#FF7000"/>
<path d="M5.27284 1.90945L7.27287 7.18227L3.81827 3.00038L3.09098 3.1822L6.54559 7.90956L1.63641 4.81859L1.45459 5.54588L6.36377 8.63684L7.27287 7.18227L8.18198 7.00045L6.00012 1.72763L5.27284 1.90945Z" fill="#FF7000"/>
<path d="M12.9094 1.90805L10.1821 7.18087C11.4506 7.37284 13.7691 2.8895 12.9094 1.90805Z" fill="#FF7000"/>
<path d="M11.0913 7.9092C12.7269 7.56438 14.7 5.0572 15.6368 3.72731C14.1112 3.59949 11.4832 6.51292 11.0913 7.9092Z" fill="#FF7000"/>
<path d="M0.545591 7.18149L0.36377 7.72695C1.90151 8.534 4.26353 9.28398 6.00023 9.36334C5.52953 8.00974 1.86285 7.45411 0.545591 7.18149Z" fill="#FF7000"/>
<path d="M0 9.72754V10.4548H5.81828V9.72754H0Z" fill="#FF7000"/>
<path d="M12.1816 10.454L17.9999 10.2722V9.90852C16.8455 9.56729 12.6158 9.14578 12.1816 10.454Z" fill="#FF7000"/>
<path d="M12 10.8177C12.4719 12.1739 16.139 12.7273 17.4546 12.9996L17.6365 12.8178V12.4541C16.0888 11.6419 13.7478 10.894 12 10.8177Z" fill="#FF7000"/>
<path d="M11.8182 11.5459L11.4546 12.2732L16.3638 15.3641L16.5456 14.6368L11.8182 11.5459Z" fill="#FF7000"/>
<path d="M2.54541 16.4545L2.72723 16.6363L7.09094 12.8181C5.91938 11.7415 3.03373 15.4074 2.54541 16.4545Z" fill="#FF7000"/>
<path d="M12.0001 18.4546H12.7274L10.7274 12.8181H10.9092C11.6549 14.2632 13.2454 16.4762 14.7274 17.1818L14.9093 17C14.3212 15.6805 12.905 13.7899 11.7657 12.8838C11.2799 12.4974 10.3601 12.5847 10.1289 13.2527C9.71832 14.4391 11.6643 17.2275 12.0001 18.4546Z" fill="#FF7000"/>
<path d="M7.09109 12.8189C6.58297 14.0394 4.09611 17.2 5.09106 18.2735L7.81838 13.0007L7.09109 12.8189Z" fill="#FF7000"/>
<path d="M7.99993 13.1815L7.09082 18.9998C8.76101 18.5113 7.83523 14.6487 9.09086 13.5452C9.09086 14.7088 8.92245 18.6315 10.1818 18.9998C10.181 17.8294 10.4183 14.3971 9.63126 13.5139C9.31228 13.1559 8.4425 13.2296 7.99993 13.1815Z" fill="#FF7000"/>
<path d="M23.5123 16V14.464H25.0163V6.336H23.5123V4.8H27.9923C29.4856 4.8 30.6269 5.17867 31.4163 5.936C32.2163 6.69333 32.6163 7.83467 32.6163 9.36V11.456C32.6163 12.9813 32.2163 14.1227 31.4163 14.88C30.6269 15.6267 29.4856 16 27.9923 16H23.5123ZM26.7603 14.432H28.0083C28.9789 14.432 29.6989 14.1867 30.1683 13.696C30.6376 13.2053 30.8723 12.4747 30.8723 11.504V9.296C30.8723 8.31467 30.6376 7.584 30.1683 7.104C29.6989 6.624 28.9789 6.384 28.0083 6.384H26.7603V14.432ZM38.2329 16.224C37.4329 16.224 36.7342 16.0587 36.1369 15.728C35.5395 15.3867 35.0702 14.912 34.7289 14.304C34.3982 13.6853 34.2329 12.9707 34.2329 12.16V11.968C34.2329 11.1467 34.3982 10.432 34.7289 9.824C35.0595 9.20533 35.5182 8.73067 36.1049 8.4C36.7022 8.05867 37.3902 7.888 38.1689 7.888C38.9262 7.888 39.5875 8.05867 40.1529 8.4C40.7289 8.73067 41.1769 9.19467 41.4969 9.792C41.8169 10.3893 41.9769 11.088 41.9769 11.888V12.512H35.9129C35.9342 13.2053 36.1635 13.76 36.6009 14.176C37.0489 14.5813 37.6035 14.784 38.2649 14.784C38.8835 14.784 39.3475 14.6453 39.6569 14.368C39.9769 14.0907 40.2222 13.7707 40.3929 13.408L41.7529 14.112C41.6035 14.4107 41.3849 14.7253 41.0969 15.056C40.8195 15.3867 40.4515 15.664 39.9929 15.888C39.5342 16.112 38.9475 16.224 38.2329 16.224ZM35.9289 11.248H40.2969C40.2542 10.6507 40.0409 10.1867 39.6569 9.856C39.2729 9.51467 38.7715 9.344 38.1529 9.344C37.5342 9.344 37.0275 9.51467 36.6329 9.856C36.2489 10.1867 36.0142 10.6507 35.9289 11.248ZM45.5034 16L42.8474 8.112H44.5914L46.6874 14.784H46.9434L49.0394 8.112H50.7834L48.1274 16H45.5034Z" fill="white"/>
<path d="M56.5745 16.224C55.1665 16.224 54.0465 15.84 53.2145 15.072C52.3825 14.2933 51.9665 13.184 51.9665 11.744V9.056C51.9665 7.616 52.3825 6.512 53.2145 5.744C54.0465 4.96533 55.1665 4.576 56.5745 4.576C57.9825 4.576 59.1025 4.96533 59.9345 5.744C60.7665 6.512 61.1825 7.616 61.1825 9.056V11.744C61.1825 13.184 60.7665 14.2933 59.9345 15.072C59.1025 15.84 57.9825 16.224 56.5745 16.224ZM56.5745 14.336C57.3638 14.336 57.9772 14.1067 58.4145 13.648C58.8518 13.1893 59.0705 12.576 59.0705 11.808V8.992C59.0705 8.224 58.8518 7.61067 58.4145 7.152C57.9772 6.69333 57.3638 6.464 56.5745 6.464C55.7958 6.464 55.1825 6.69333 54.7345 7.152C54.2972 7.61067 54.0785 8.224 54.0785 8.992V11.808C54.0785 12.576 54.2972 13.1893 54.7345 13.648C55.1825 14.1067 55.7958 14.336 56.5745 14.336ZM64.763 16L62.235 8.064H64.379L66.219 14.528H66.507L68.347 8.064H70.491L67.963 16H64.763ZM75.2463 16.224C74.4569 16.224 73.7583 16.0587 73.1503 15.728C72.5529 15.3867 72.0836 14.912 71.7423 14.304C71.4116 13.6853 71.2463 12.96 71.2463 12.128V11.936C71.2463 11.104 71.4116 10.384 71.7423 9.776C72.0729 9.15733 72.5369 8.68267 73.1343 8.352C73.7316 8.01067 74.4249 7.84 75.2143 7.84C75.9929 7.84 76.6703 8.016 77.2463 8.368C77.8223 8.70933 78.2703 9.18933 78.5903 9.808C78.9103 10.416 79.0703 11.1253 79.0703 11.936V12.624H73.2943C73.3156 13.168 73.5183 13.6107 73.9023 13.952C74.2863 14.2933 74.7556 14.464 75.3103 14.464C75.8756 14.464 76.2916 14.3413 76.5583 14.096C76.8249 13.8507 77.0276 13.5787 77.1663 13.28L78.8143 14.144C78.6649 14.4213 78.4463 14.7253 78.1583 15.056C77.8809 15.376 77.5076 15.6533 77.0383 15.888C76.5689 16.112 75.9716 16.224 75.2463 16.224ZM73.3103 11.12H77.0223C76.9796 10.6613 76.7929 10.2933 76.4623 10.016C76.1423 9.73867 75.7209 9.6 75.1983 9.6C74.6543 9.6 74.2223 9.73867 73.9023 10.016C73.5823 10.2933 73.3849 10.6613 73.3103 11.12ZM80.8646 16V8.064H82.8486V8.96H83.1366C83.254 8.64 83.446 8.40533 83.7126 8.256C83.99 8.10667 84.31 8.032 84.6726 8.032H85.6326V9.824H84.6406C84.1286 9.824 83.7073 9.96267 83.3766 10.24C83.046 10.5067 82.8806 10.9227 82.8806 11.488V16H80.8646ZM88.5204 16V9.728H86.5044V8.064H88.5204V6.592C88.5204 6.048 88.6804 5.616 89.0004 5.296C89.331 4.96533 89.7577 4.8 90.2804 4.8H92.3604V6.464H90.9844C90.6857 6.464 90.5364 6.624 90.5364 6.944V8.064H92.6164V9.728H90.5364V16H88.5204ZM93.7364 16V4.8H95.7524V16H93.7364ZM101.766 16.224C100.976 16.224 100.267 16.064 99.6376 15.744C99.0083 15.424 98.5123 14.96 98.1496 14.352C97.787 13.744 97.6056 13.0133 97.6056 12.16V11.904C97.6056 11.0507 97.787 10.32 98.1496 9.712C98.5123 9.104 99.0083 8.64 99.6376 8.32C100.267 8 100.976 7.84 101.766 7.84C102.555 7.84 103.264 8 103.894 8.32C104.523 8.64 105.019 9.104 105.382 9.712C105.744 10.32 105.926 11.0507 105.926 11.904V12.16C105.926 13.0133 105.744 13.744 105.382 14.352C105.019 14.96 104.523 15.424 103.894 15.744C103.264 16.064 102.555 16.224 101.766 16.224ZM101.766 14.432C102.384 14.432 102.896 14.2347 103.302 13.84C103.707 13.4347 103.91 12.8587 103.91 12.112V11.952C103.91 11.2053 103.707 10.6347 103.302 10.24C102.907 9.83467 102.395 9.632 101.766 9.632C101.147 9.632 100.635 9.83467 100.23 10.24C99.8243 10.6347 99.6216 11.2053 99.6216 11.952V12.112C99.6216 12.8587 99.8243 13.4347 100.23 13.84C100.635 14.2347 101.147 14.432 101.766 14.432ZM108.395 16L107.275 8.064H109.275L109.979 14.64H110.267L111.291 8.064H114.523L115.547 14.64H115.835L116.539 8.064H118.539L117.419 16H114.075L113.051 9.424H112.763L111.739 16H108.395Z" fill="#FF7000"/>
</svg>
